<?xml version="1.0" encoding="utf-8"?>
<!-- Generator: Adobe Illustrator 23.0.3, SVG Export Plug-In . SVG Version: 6.00 Build 0)  -->
<svg version="1.1" id="Layer_1" xmlns="http://www.w3.org/2000/svg" xmlns:xlink="http://www.w3.org/1999/xlink" x="0px" y="0px"
	 viewBox="0 0 30 16.9" style="enable-background:new 0 0 30 16.9;" xml:space="preserve">
<style type="text/css">
	.st0{fill:#FFFDFD;}
</style>
<path class="st0" d="M7.9,8.7c0-1,0.2-1.9,0.6-2.7S9.4,4.4,10,3.7s1.4-1.1,2.3-1.5c0.9-0.4,1.8-0.6,2.8-0.6h1.1
	c0.2,0,0.2,0.1,0.2,0.3l0,0.9c0,1.3,0.5,2.4,1.4,3.2c0.9,0.9,1.9,1.4,3.2,1.4l0.8,0.1C22,7.5,22,7.6,22,7.8v1c0,1.3-0.3,2.5-0.9,3.6
	c-0.6,1.1-1.5,2-2.6,2.6c-1.1,0.6-2.3,1-3.6,1c-1,0-1.9-0.2-2.8-0.6s-1.6-0.9-2.3-1.5c-0.6-0.6-1.1-1.4-1.5-2.3
	C8.1,10.6,7.9,9.7,7.9,8.7z M9.7,8.7c0,0.8,0.1,1.5,0.4,2.2c0.3,0.7,0.7,1.2,1.2,1.7c0.5,0.5,1.1,0.8,1.7,1.1
	c0.6,0.3,1.3,0.4,1.9,0.4c0.6,0,1.2-0.1,1.8-0.3s1.1-0.5,1.6-1s0.9-0.9,1.3-1.6c0.4-0.6,0.6-1.3,0.7-2.1c-1.6-0.3-2.9-1-3.9-2.1
	S15,4.7,14.8,3.3c-1,0.1-1.8,0.3-2.6,0.9c-0.8,0.5-1.4,1.2-1.8,2C10,7,9.7,7.8,9.7,8.7z"/>
</svg>
