<?xml version="1.0" encoding="utf-8"?>
<!-- Generator: Adobe Illustrator 23.0.3, SVG Export Plug-In . SVG Version: 6.00 Build 0)  -->
<svg version="1.1" id="Layer_1" xmlns="http://www.w3.org/2000/svg" xmlns:xlink="http://www.w3.org/1999/xlink" x="0px" y="0px"
	 viewBox="0 0 30 30" style="enable-background:new 0 0 30 30;" xml:space="preserve">
<style type="text/css">
	.st0{fill:#FCFCFC;}
</style>
<path class="st0" d="M0.3,21.1c0,0.2,0.1,0.4,0.3,0.6s0.4,0.2,0.6,0.2h18.7c0.2,0,0.4-0.1,0.6-0.2s0.3-0.4,0.3-0.6s-0.1-0.4-0.3-0.6
	c-0.2-0.2-0.4-0.3-0.6-0.3H1.2c-0.3,0-0.5,0.1-0.6,0.3S0.3,20.8,0.3,21.1z M2.9,17.9c0,0.2,0.1,0.4,0.3,0.6c0.2,0.2,0.4,0.3,0.6,0.3
	h18.7c0.2,0,0.4-0.1,0.6-0.3s0.2-0.4,0.2-0.6s-0.1-0.4-0.2-0.6c-0.2-0.2-0.4-0.2-0.6-0.2H3.8c-0.2,0-0.4,0.1-0.6,0.2
	C3,17.5,2.9,17.7,2.9,17.9z M3.1,15.5c0,0.1,0,0.1,0.2,0.1h1.4c0.1,0,0.1-0.1,0.2-0.2c0.2-0.5,0.6-0.9,1.1-1.3s1-0.5,1.6-0.6L8,13.6
	c0.1,0,0.2-0.1,0.2-0.2l0.1-0.5c0.1-1.1,0.6-2,1.4-2.7c0.8-0.7,1.8-1.1,2.9-1.1c1.1,0,2,0.4,2.8,1.1c0.8,0.7,1.3,1.6,1.4,2.7
	l0.1,0.6c0,0.1,0.1,0.2,0.2,0.2h1.6c0.6,0,1.2,0.2,1.8,0.5c0.5,0.3,0.9,0.8,1.2,1.4c0.1,0.1,0.1,0.2,0.2,0.2h1.4
	c0.1,0,0.2-0.1,0.1-0.2l-0.2-0.6c0.8-0.9,1.1-2,1.1-3.3c0-0.7-0.1-1.4-0.4-2s-0.6-1.2-1.1-1.7c-0.5-0.5-1-0.8-1.7-1.1
	s-1.3-0.4-2-0.4c-1.5,0-2.8,0.6-3.8,1.7c-0.9-0.4-1.7-0.6-2.7-0.6c-1.4,0-2.6,0.4-3.7,1.3s-1.8,2-2.1,3.4
	C4.9,12.6,3.7,13.7,3.1,15.5C3.1,15.4,3.1,15.5,3.1,15.5z M4.7,24.1c0,0.2,0.1,0.4,0.3,0.6C5.1,24.9,5.3,25,5.6,25h18.7
	c0.2,0,0.4-0.1,0.6-0.3s0.3-0.4,0.3-0.6c0-0.2-0.1-0.4-0.3-0.6c-0.2-0.1-0.4-0.2-0.6-0.2H5.6c-0.2,0-0.4,0.1-0.6,0.2
	C4.8,23.7,4.7,23.9,4.7,24.1z M11.3,4.7c0,0.2,0.1,0.4,0.2,0.6l0.6,0.6c0.2,0.2,0.4,0.3,0.6,0.3s0.4-0.1,0.6-0.3
	c0.2-0.2,0.3-0.4,0.3-0.6c0-0.2-0.1-0.4-0.3-0.6l-0.6-0.6c-0.2-0.2-0.4-0.3-0.6-0.3c-0.2,0-0.4,0.1-0.6,0.2
	C11.3,4.2,11.3,4.4,11.3,4.7z M16.6,9c0.7-0.7,1.5-1,2.4-1c1,0,1.8,0.4,2.5,1s1,1.5,1,2.5c0,0.6-0.2,1.3-0.5,1.8
	c-1-0.9-2.1-1.4-3.5-1.4h-0.3C18,10.8,17.4,9.8,16.6,9z M18.2,3.8c0,0.2,0.1,0.4,0.2,0.6c0.2,0.2,0.4,0.2,0.6,0.2
	c0.3,0,0.5-0.1,0.6-0.2s0.3-0.3,0.3-0.6V1.8c0-0.2-0.1-0.4-0.3-0.6C19.5,1,19.2,0.9,19,0.9c-0.2,0-0.4,0.1-0.6,0.3s-0.2,0.4-0.2,0.6
	L18.2,3.8L18.2,3.8z M23.7,6.1c0,0.2,0.1,0.4,0.2,0.6c0.4,0.4,0.8,0.4,1.2,0l1.4-1.4c0.2-0.2,0.2-0.4,0.2-0.6c0-0.2-0.1-0.4-0.2-0.6
	c-0.2-0.2-0.4-0.2-0.6-0.2c-0.2,0-0.4,0.1-0.6,0.2l-1.5,1.5C23.8,5.7,23.7,5.9,23.7,6.1z M24.5,17.9c0,0.2,0.1,0.4,0.3,0.6l0.6,0.6
	c0.2,0.2,0.4,0.2,0.6,0.2c0.2,0,0.4-0.1,0.6-0.2c0.2-0.2,0.2-0.4,0.2-0.6c0-0.2-0.1-0.4-0.2-0.6l-0.6-0.7c-0.2-0.2-0.4-0.2-0.6-0.2
	c-0.2,0-0.4,0.1-0.6,0.3C24.6,17.4,24.5,17.6,24.5,17.9z M26,11.6c0,0.2,0.1,0.4,0.3,0.6c0.1,0.2,0.4,0.3,0.6,0.3h2
	c0.2,0,0.4-0.1,0.6-0.3s0.2-0.4,0.2-0.6c0-0.2-0.1-0.4-0.2-0.6c-0.2-0.2-0.4-0.2-0.6-0.2h-2c-0.2,0-0.4,0.1-0.6,0.3
	C26,11.1,26,11.3,26,11.6z"/>
</svg>
