<svg xmlns="http://www.w3.org/2000/svg" xmlns:xlink="http://www.w3.org/1999/xlink" viewBox="0 0 178.48 44.02"><defs><style>.cls-1{fill:#b31418;}.cls-2{clip-path:url(#clip-path);}.cls-3{fill:#fff;}.cls-4{fill:#bcbcbc;}.cls-5{fill:#383838;fill-rule:evenodd;}</style><clipPath id="clip-path" transform="translate(0)"><rect class="cls-1" width="178.48" height="44.02"/></clipPath></defs><title>logo</title><g id="Capa_2" data-name="Capa 2"><rect class="cls-1" width="178.48" height="44.02"/><g class="cls-2"><rect class="cls-1" width="178.44" height="44.02"/></g><ellipse class="cls-3" cx="21.73" cy="18.78" rx="13" ry="12.64"/></g><g id="Capa_1" data-name="Capa 1"><path class="cls-1" d="M14.07,20.28l3,2.47L16,21l5.92-6.74,5.51,5.86-1.3-2.84.59-.67,6,6.24a11.39,11.39,0,1,0-22.17-3.67,11.24,11.24,0,0,0,.69,3.91Z" transform="translate(0)"/><path class="cls-4" d="M30.36,32.55l-.24-.17-.23-.16-.47-.3h0l-1-.6-.32-.18L27.94,31l-.52-.28-.5-.26-.17-.08a12.33,12.33,0,1,1,2.37-1.35l.11.06.36.21c.43.26.76.46,1.06.66l.52.36.26.18.24.18.52.4c1.14-1.86,2.09-3.57,2.7-4.79a14.24,14.24,0,0,0,.71-1.47h0a14.85,14.85,0,1,0-26,2.49c2.18,4.17,9.25,15,12.35,15C24.24,42.34,28,37.61,31,33Z" transform="translate(0)"/><path class="cls-1" d="M35.37,35.56a10.43,10.43,0,0,0-.64-1c-.23-.32-.49-.63-.75-.93s-.54-.58-.83-.86l-.44-.41L32.26,32c-.32-.26-.63-.52-1-.76L31.06,31l-.25-.17-.5-.34c-.34-.23-.69-.44-1-.65l-.54-.31-.52-.28L27.65,29l-.55-.26-.56-.25c-.16-.07-.33-.15-.5-.21l-.55.88.1,0,1.08.47.52.26.52.26.53.29.51.28,1,.61.49.32.24.16.24.17c.31.22.62.46.93.69a19,19,0,0,1,1.7,1.52c.26.26.51.54.74.82a10.33,10.33,0,0,1,.64.88,5.85,5.85,0,0,1,.48.93,3.41,3.41,0,0,1,.25,1,1.9,1.9,0,0,1-.13.92l0,.06v0h0l-.06.11,0,.06,0,0v0l-.07.09,0,0,0,0-.08.09,0,0,0,0-.09.08A2.75,2.75,0,0,1,34,40l-.11,0-.12,0-.22.07-.23.06-.24,0a5.88,5.88,0,0,1-.93.1h-.9a12.77,12.77,0,0,1-1.7-.2A14.68,14.68,0,0,1,28,39.76c-.46-.13-.88-.26-1.27-.39l0,0c.39.15.82.29,1.28.44a16.88,16.88,0,0,0,3.21.68l.46,0h.47a8,8,0,0,0,1,0l.25,0,.25,0,.25-.05.13,0,.12,0a3.51,3.51,0,0,0,1-.48,2.57,2.57,0,0,0,.43-.39l.09-.12,0,0,0,0,0-.05.07-.11,0,0V39l0-.07a2.61,2.61,0,0,0,.24-1.17,4.1,4.1,0,0,0-.21-1.16A7,7,0,0,0,35.37,35.56Z" transform="translate(0)"/><path class="cls-5" d="M27.26,25.18l-.64-.24L24,26.67l-2.15.11c-1.74-.73-3.5-1.34-5.29-2-.8-.14-1.13-.21-1.51.08a.8.8,0,0,0-.47.09c-.06.09-.05.1,0,.18.35.81,1,1,1.68,1.29-.28.15-.37.57-.27.68a3.09,3.09,0,0,0,1.41.63c.05,0,.11-.05.13-.08h.21a.14.14,0,0,0,.14,0,.33.33,0,0,0,.06-.19,34.56,34.56,0,0,0,4.93,1.27c.71.07,1.43.13,2.14.18l.51-.82h0C26.1,27.11,26.68,26.15,27.26,25.18Zm-10.78.32,0,.11,0,0h0a0,0,0,0,1,0,0l0-.11s0,0,0,0h0S16.48,25.49,16.48,25.5Zm.16.06,0,.11s0,0,0,0h0s0,0,0,0l0-.11a0,0,0,0,1,0,0h0S16.64,25.55,16.64,25.56Zm.15.2h-.06s0,0,0,0l0-.12s0,0,0,0h0s0,0,0,0Zm.16.06s0,0,0,0h0a0,0,0,0,1,0,0l0-.12H17s0,0,0,0Zm.21-.05,0,.11s0,0,0,0h0s0,0,0,0l0-.11,0,0h0S17.16,25.76,17.16,25.77Zm.17.06,0,.11s0,0,0,0h0s0,0,0,0l0-.12s0,0,0,0h0A0,0,0,0,1,17.33,25.83Zm.18.09,0,.11s0,0,0,0h0s0,0,0,0l0-.11,0,0h0A0,0,0,0,1,17.51,25.92Zm.19.07,0,.11a0,0,0,0,1,0,0h0s0,0,0,0l0-.11s0,0,0,0h0S17.71,26,17.7,26Zm.19.07,0,.12s0,0,0,0h0s0,0,0,0l0-.11s0,0,0,0h0S17.9,26.05,17.89,26.06Zm.2.09,0,.11s0,0,0,0h0s0,0,0,0l0-.11a0,0,0,0,1,0,0h0S18.09,26.14,18.09,26.15Zm.16.06,0,.11,0,0h0l0,0,0-.11s0,0,0,0h0S18.25,26.2,18.25,26.21Zm.15.19s0,0,0,0h0s0,0,0,0l0-.11,0,0h0s0,0,0,0Zm.16.06a0,0,0,0,1,0,0h0s0,0,0,0l0-.11s0,0,0,0h0a0,0,0,0,1,0,0Zm.21-.05,0,.12h-.06l0,0,0-.12h.07S18.77,26.4,18.77,26.41Zm.17.07,0,.11,0,0h0a0,0,0,0,1,0,0l0-.11s0,0,0,0h0S18.94,26.47,18.94,26.48Zm.24.09,0,.11s0,0,0,0h0s0,0,0,0l0-.11s0,0,0,0h0S19.18,26.56,19.18,26.57Zm.17.19a0,0,0,0,1,0,0h0s0,0,0,0l0-.11s0,0,0,0h0s0,0,0,0Zm.26,0,0,.11s0,0,0,0h0s0,0,0,0l0-.11,0,0h0A0,0,0,0,1,19.61,26.74Zm.18.08,0,.12H19.7l0,0,0-.12s0,0,0,0h0S19.79,26.81,19.79,26.82Zm.2.07L20,27s0,0,0,0h0s0,0,0,0l0-.11s0,0,0,0h0A0,0,0,0,1,20,26.89Zm.15.19s0,0,0,0h0s0,0,0,0l0-.12s0,0,0,0h0a0,0,0,0,1,0,0Zm.22,0,0,.11a0,0,0,0,1,0,0h0l0,0,0-.11s0,0,0,0h0S20.36,27,20.36,27.05Zm.18.06,0,.12s0,0,0,0h0l0,0,0-.12h.07S20.55,27.1,20.54,27.11Zm.21.08,0,.11,0,0h0a0,0,0,0,1,0,0l0-.11s0,0,0,0h0S20.75,27.18,20.75,27.19Zm.15.19s0,0,0,0h0a0,0,0,0,1,0,0l0-.11s0,0,0,0h0s0,0,0,0Zm.19.07a0,0,0,0,1,0,0h0s0,0,0,0l0-.11s0,0,0,0h0s0,0,0,0Zm.23,0,0,.11s0,0,0,0h0s0,0,0,0l0-.11s0,0,0,0h0S21.33,27.4,21.32,27.41Zm.18.19s0,0,0,0h0s0,0,0,0l0-.11s0,0,0,0h0a0,0,0,0,1,0,0Zm.23,0,0,.11s0,0,0,0h0s0,0,0,0l0-.12s0,0,0,0h0Zm.19.08,0,.11s0,0,0,0h0s0,0,0,0l0-.11s0,0,0,0h0S21.93,27.64,21.92,27.66Zm.18.19s0,0,0,0h0a0,0,0,0,1,0,0l0-.11s0,0,0,0h0s0,0,0,0Zm.24,0,0,.11s0,0,0,0h0s0,0,0,0l0-.12s0,0,0,0h0Z" transform="translate(0)"/><path class="cls-3" d="M52,16.47h-3.8V13.39H59.67v3.08H55.79v10.4H52Z" transform="translate(0)"/><path class="cls-3" d="M60,20.41c0-1.74,0-2.62-.08-3.38h3.22l.12,1.9h.08a3,3,0,0,1,2.86-2.14,2.92,2.92,0,0,1,.74.06v3.5a4.41,4.41,0,0,0-1-.12c-1.3,0-2,.54-2.14,1.28a3.85,3.85,0,0,0,0,.48v4.88H60Z" transform="translate(0)"/><path class="cls-3" d="M74.25,26.87l-.2-.84H74a3.72,3.72,0,0,1-2.88,1.09A3.2,3.2,0,0,1,67.65,24c0-2.64,2.36-3.86,6.08-3.86v-.06c0-.36-.24-.8-1.72-.8a6.84,6.84,0,0,0-3,.78l-.66-2.36a9.32,9.32,0,0,1,4.3-.92c3.38,0,4.82,1.7,4.82,4.34v3.3a13.89,13.89,0,0,0,.16,2.44Zm-.4-4.44c-1.66,0-2.46.42-2.46,1.22,0,.56.38.88,1.08.88a1.45,1.45,0,0,0,1.34-1,2.37,2.37,0,0,0,0-.54Z" transform="translate(0)"/><path class="cls-3" d="M82.75,17,84,21.29a19,19,0,0,1,.48,2.14h.08c.12-.72.24-1.38.44-2.14L86.11,17h4l-3.88,9.84H82.39L78.63,17Z" transform="translate(0)"/><path class="cls-3" d="M94.21,23.21c.14.74,1.4,1.14,2.7,1.14a9.47,9.47,0,0,0,2.94-.4l.48,2.48a10.38,10.38,0,0,1-3.94.69c-3.68,0-5.76-2-5.76-5.11A5.17,5.17,0,0,1,96,16.79c3.52,0,4.86,2.62,4.86,5.12a6.05,6.05,0,0,1-.14,1.3Zm3.18-2.54a1.47,1.47,0,0,0-1.54-1.48,1.68,1.68,0,0,0-1.7,1.48Z" transform="translate(0)"/><path class="cls-3" d="M102.61,12.55h3.78V26.87h-3.78Z" transform="translate(0)"/><path class="cls-4" d="M113.07,13.57a33.39,33.39,0,0,1,4.58-.3,11,11,0,0,1,4.28.56A3,3,0,0,1,124,16.69a3,3,0,0,1-2.28,2.8v0a3.35,3.35,0,0,1,2.74,3.32,3.66,3.66,0,0,1-1.68,3c-1.08.72-2.84,1.15-5.84,1.15a25,25,0,0,1-3.86-.25Zm3.74,4.92h.8c1.76,0,2.56-.48,2.56-1.32s-.66-1.2-2-1.2a8.67,8.67,0,0,0-1.36.08Zm0,5.76a10,10,0,0,0,1.22,0c1.32,0,2.42-.46,2.42-1.64s-1.14-1.52-2.66-1.52h-1Z" transform="translate(0)"/><path class="cls-4" d="M136.75,23.45c0,1.5,0,2.64.08,3.42h-3.26l-.16-1.38h-.08a3.59,3.59,0,0,1-3.2,1.63c-2.28,0-3.74-1.43-3.74-4.31V17h3.78v5.12c0,1.28.46,2,1.4,2a1.38,1.38,0,0,0,1.34-1,1.07,1.07,0,0,0,.06-.44V17h3.78Z" transform="translate(0)"/><path class="cls-4" d="M149.89,12.55V23.77c0,1.28,0,2.58.08,3.1h-3.38l-.14-1.42h0a3.66,3.66,0,0,1-3.28,1.67c-2.3,0-4.54-1.81-4.54-5.09a4.85,4.85,0,0,1,4.78-5.24,3.29,3.29,0,0,1,2.7,1h0v-5.2Zm-3.78,8.88a3.24,3.24,0,0,0,0-.44,1.68,1.68,0,0,0-1.66-1.4c-1.36,0-2,1.06-2,2.3a2,2,0,0,0,2,2.24,1.67,1.67,0,0,0,1.66-1.4,3.88,3.88,0,0,0,0-.68Z" transform="translate(0)"/><path class="cls-4" d="M163,12.55V23.77c0,1.28,0,2.58.08,3.1h-3.38l-.14-1.42h0a3.66,3.66,0,0,1-3.28,1.67c-2.3,0-4.54-1.81-4.54-5.09a4.85,4.85,0,0,1,4.78-5.24,3.29,3.29,0,0,1,2.7,1h0v-5.2Zm-3.78,8.88a3.24,3.24,0,0,0,0-.44,1.68,1.68,0,0,0-1.66-1.4c-1.36,0-2,1.06-2,2.3a2,2,0,0,0,2,2.24,1.67,1.67,0,0,0,1.66-1.4,3.88,3.88,0,0,0,0-.68Z" transform="translate(0)"/><path class="cls-4" d="M168.57,17l1.3,4.26c.16.56.36,1.36.5,1.84h.08c.14-.52.3-1.32.42-1.84l1-4.26H176l-2.08,5.62c-1.82,5-2.9,6.41-4,7.29a6.21,6.21,0,0,1-3.54,1.38l-.7-3.16a4.42,4.42,0,0,0,1.22-.29,3.28,3.28,0,0,0,1.28-.87.83.83,0,0,0,.2-.46,1.31,1.31,0,0,0-.16-.59L164.35,17Z" transform="translate(0)"/></g></svg>