<?xml version="1.0" encoding="utf-8"?>
<!-- Generator: Adobe Illustrator 23.0.3, SVG Export Plug-In . SVG Version: 6.00 Build 0)  -->
<svg version="1.1" id="Layer_1" xmlns="http://www.w3.org/2000/svg" xmlns:xlink="http://www.w3.org/1999/xlink" x="0px" y="0px"
	 viewBox="0 0 30 24.2" style="enable-background:new 0 0 30 24.2;" xml:space="preserve">
<style type="text/css">
	.st0{fill:#FFFFFF;}
</style>
<path class="st0" d="M3.1,13.4c0,0.3,0.1,0.5,0.3,0.7s0.4,0.3,0.7,0.3h1.7c0.3,0,0.5-0.1,0.7-0.3s0.3-0.4,0.3-0.7s-0.1-0.5-0.3-0.7
	s-0.4-0.3-0.7-0.3H4.1c-0.3,0-0.5,0.1-0.7,0.3C3.2,12.9,3.1,13.1,3.1,13.4z M4.9,19.6c0,1,0.3,1.8,1.1,2.5c0.7,0.7,1.5,1.1,2.5,1.1
	h6.9c1,0,1.8-0.4,2.5-1c0.7-0.7,1-1.5,1-2.5c0-0.5-0.1-0.9-0.2-1.2c0.8-0.5,1.5-1.2,2-2.1s0.7-1.8,0.7-2.8c0-0.8-0.2-1.6-0.5-2.3
	s-0.8-1.4-1.3-1.9s-1.2-1-1.9-1.3c-0.7-0.3-1.5-0.5-2.3-0.5c-1.1,0-2.1,0.3-3,0.8s-1.6,1.3-2.2,2.2c-0.5,0.9-0.8,1.9-0.8,3v0.3
	c-1,0.6-1.7,1.4-2,2.5c-0.8,0.2-1.4,0.7-1.8,1.3C5.1,18.1,4.9,18.8,4.9,19.6z M6.4,5.4c0,0.3,0.1,0.5,0.3,0.7l1.6,1.7
	c0.5,0.4,0.9,0.4,1.4,0C9.9,7.6,10,7.4,10,7.1S9.9,6.6,9.7,6.4L8.1,4.8C7.8,4.6,7.6,4.5,7.3,4.5C7,4.5,6.8,4.6,6.6,4.8
	S6.4,5.2,6.4,5.4z M6.8,19.6c0-0.4,0.1-0.8,0.4-1.1s0.6-0.5,1-0.5l0.6-0.1c0.1,0,0.2-0.1,0.2-0.2l0.1-0.6c0.1-0.6,0.3-1.1,0.7-1.4
	c0.4-0.4,0.9-0.6,1.5-0.6s1.1,0.2,1.5,0.6c0.4,0.4,0.7,0.9,0.8,1.4l0.1,0.6C13.8,18,13.9,18,14,18h1.3c0.4,0,0.8,0.2,1.1,0.5
	s0.5,0.7,0.5,1.1c0,0.5-0.2,0.8-0.5,1.1s-0.7,0.5-1.1,0.5H8.4c-0.4,0-0.8-0.2-1.1-0.5C7,20.5,6.8,20.1,6.8,19.6z M11.3,13.2
	c0.1-1.1,0.5-2,1.3-2.8c0.8-0.7,1.7-1.1,2.8-1.1s2.1,0.4,2.8,1.2c0.8,0.8,1.2,1.8,1.2,2.9c0,0.7-0.2,1.4-0.5,1.9
	c-0.3,0.6-0.8,1.1-1.4,1.5c-0.6-0.5-1.3-0.7-2-0.7c-0.3-0.9-0.8-1.6-1.5-2.1s-1.6-0.8-2.5-0.8C11.4,13.2,11.3,13.2,11.3,13.2z
	 M14.4,4.5c0,0.3,0.1,0.5,0.3,0.7s0.4,0.3,0.7,0.3s0.5-0.1,0.7-0.3s0.3-0.4,0.3-0.7V2.1c0-0.3-0.1-0.5-0.3-0.7
	c-0.2-0.2-0.4-0.3-0.7-0.3s-0.5,0.1-0.7,0.3s-0.3,0.4-0.3,0.7C14.4,2.1,14.4,4.5,14.4,4.5z M20.7,19.7c0,0.3,0.1,0.5,0.3,0.7
	l1.6,1.6c0.4,0.4,0.9,0.4,1.4,0c0.2-0.2,0.3-0.4,0.3-0.7c0-0.3-0.1-0.5-0.3-0.7L22.3,19c-0.2-0.2-0.4-0.3-0.7-0.3
	c-0.3,0-0.5,0.1-0.7,0.3C20.8,19.2,20.7,19.4,20.7,19.7z M20.7,7.1c0,0.3,0.1,0.5,0.3,0.7c0.2,0.2,0.4,0.3,0.7,0.3s0.5-0.1,0.7-0.3
	L24,6.1c0.2-0.2,0.3-0.4,0.3-0.7S24.2,4.9,24,4.8s-0.4-0.3-0.7-0.3c-0.3,0-0.5,0.1-0.7,0.3L21,6.4C20.8,6.6,20.7,6.8,20.7,7.1z
	 M23.3,13.4c0,0.3,0.1,0.5,0.3,0.7s0.4,0.3,0.7,0.3H26c0.3,0,0.5-0.1,0.7-0.3s0.3-0.4,0.3-0.7s-0.1-0.5-0.3-0.7s-0.4-0.3-0.7-0.3
	h-1.7c-0.3,0-0.5,0.1-0.7,0.3C23.4,12.9,23.3,13.1,23.3,13.4z"/>
</svg>
