<?xml version="1.0" encoding="utf-8"?>
<!-- Generator: Adobe Illustrator 23.0.3, SVG Export Plug-In . SVG Version: 6.00 Build 0)  -->
<svg version="1.1" id="Layer_1" xmlns="http://www.w3.org/2000/svg" xmlns:xlink="http://www.w3.org/1999/xlink" x="0px" y="0px"
	 viewBox="0 0 30 24.3" style="enable-background:new 0 0 30 24.3;" xml:space="preserve">
<style type="text/css">
	.st0{fill:#FFFFFF;}
</style>
<path class="st0" d="M4.4,12.3c0-0.2,0.1-0.4,0.3-0.6c0.2-0.2,0.4-0.2,0.6-0.2h2c0.2,0,0.4,0.1,0.6,0.3c0.1,0,0.2,0.2,0.2,0.5
	S8,12.7,7.8,12.9s-0.3,0.3-0.6,0.3h-2c-0.2,0-0.4-0.1-0.6-0.3C4.5,12.7,4.4,12.5,4.4,12.3z M7.2,19.2c0-0.2,0.1-0.4,0.2-0.6l1.5-1.4
	C9,17,9.3,17,9.5,17s0.4,0.1,0.6,0.2s0.2,0.3,0.2,0.6c0,0.2-0.1,0.5-0.2,0.6l-1.4,1.4c-0.4,0.3-0.8,0.3-1.2,0
	C7.3,19.6,7.2,19.4,7.2,19.2z M7.2,5.3c0-0.2,0.1-0.4,0.2-0.6C7.6,4.5,7.8,4.4,8,4.4c0.2,0,0.4,0.1,0.6,0.2L10,6.1
	c0.2,0.1,0.2,0.4,0.2,0.6S10.1,7.1,10,7.3S9.8,7.6,9.5,7.6c-0.2,0-0.4-0.1-0.6-0.2L7.5,6C7.3,5.8,7.2,5.6,7.2,5.3z M9.8,12.3
	c0-0.9,0.2-1.8,0.7-2.6s1.1-1.4,1.9-1.9C13.2,7.3,14.1,7,15,7c0.7,0,1.4,0.1,2,0.4s1.2,0.7,1.7,1.1c0.5,0.5,0.8,1,1.1,1.7
	c0.3,0.6,0.4,1.3,0.4,2c0,0.9-0.2,1.8-0.7,2.6c-0.5,0.8-1.1,1.4-1.9,1.9s-1.7,0.7-2.6,0.7s-1.8-0.2-2.6-0.7s-1.4-1.1-1.9-1.9
	C10,14.1,9.8,13.2,9.8,12.3z M11.5,12.3c0,1,0.3,1.8,1,2.5s1.5,1,2.5,1s1.8-0.4,2.5-1s1-1.5,1-2.5s-0.4-1.8-1-2.5
	c-0.7-0.7-1.5-1-2.5-1s-1.8,0.3-2.5,1S11.5,11.3,11.5,12.3z M14.1,20c0-0.2,0.1-0.4,0.3-0.6s0.4-0.2,0.6-0.2c0.2,0,0.4,0.1,0.6,0.2
	s0.2,0.4,0.2,0.6v2c0,0.2-0.1,0.5-0.3,0.6s-0.4,0.3-0.6,0.3s-0.4-0.1-0.6-0.3C14.1,22.4,14,22.2,14,22C14.1,22,14.1,20,14.1,20z
	 M14.1,4.5v-2c0-0.2,0.1-0.4,0.3-0.6s0.4-0.3,0.6-0.3s0.4,0.1,0.6,0.3s0.3,0.4,0.3,0.6v2c0,0.2-0.1,0.4-0.3,0.6S15.2,5.3,15,5.3
	s-0.4-0.1-0.6-0.2S14.1,4.8,14.1,4.5z M19.7,17.7c0-0.2,0.1-0.4,0.2-0.6s0.3-0.2,0.6-0.2c0.2,0,0.4,0.1,0.6,0.2l1.5,1.4
	c0.2,0.2,0.2,0.4,0.2,0.6s-0.1,0.4-0.2,0.6c-0.4,0.3-0.8,0.3-1.2,0L20,18.3C19.7,18.2,19.7,18,19.7,17.7z M19.7,6.8
	c0-0.3,0.1-0.4,0.2-0.6l1.4-1.5c0.2-0.2,0.4-0.2,0.6-0.2s0.4,0.1,0.6,0.3c0.2,0.2,0.3,0.4,0.3,0.6c0,0.3-0.1,0.5-0.2,0.6L21,7.4
	c-0.2,0.2-0.4,0.2-0.6,0.2S20,7.5,19.8,7.4S19.7,7,19.7,6.8z M21.9,12.3c0-0.2,0.1-0.4,0.2-0.6c0.2-0.2,0.4-0.2,0.6-0.2h2
	c0.2,0,0.4,0.1,0.6,0.3s0.3,0.4,0.3,0.6s-0.1,0.4-0.3,0.6s-0.4,0.3-0.6,0.3h-2c-0.2,0-0.4-0.1-0.6-0.3S21.9,12.5,21.9,12.3z"/>
</svg>
